<svg width="241" height="236" viewBox="0 0 241 236" fill="none" xmlns="http://www.w3.org/2000/svg">
<g clip-path="url(#clip0_3780_3833)">
<path d="M69.6023 18.8984C69.6023 18.8984 46.8207 23.7705 32.4391 26.4266C18.0575 29.0828 -11.1682 43.0539 5.23005 98.8324C5.23005 98.8324 -3.31401 127.617 2.39466 147.546C8.10333 167.474 14.0774 190.279 14.0774 190.279C14.0774 190.279 7.66362 212.051 8.77048 234.856" stroke="#A4A4A4" stroke-miterlimit="10"/>
<path d="M33.2734 82.1797C33.2734 82.1797 42.8713 128.556 44.1904 144.12C45.5171 159.693 57.4273 181.549 57.7608 187.18C58.0944 192.811 55.115 221.315 51.476 234.907" stroke="#A4A4A4" stroke-miterlimit="10"/>
<path d="M49.4842 164.492C49.4842 164.492 42.2062 172.286 42.5398 192.161C42.8734 212.037 44.5261 222.32 39.2344 234.917" stroke="#A4A4A4" stroke-miterlimit="10"/>
<path d="M171.398 18.9609C171.398 18.9609 194.18 23.833 208.562 26.4891C222.936 29.1453 252.161 43.1165 235.771 98.895C235.771 98.895 244.315 127.68 238.606 147.608C232.897 167.537 226.923 190.341 226.923 190.341C226.923 190.341 233.337 212.114 232.23 234.919" stroke="#A4A4A4" stroke-miterlimit="10"/>
<path d="M208.427 82.1797C208.427 82.1797 198.829 128.556 197.51 144.12C196.183 159.693 184.273 181.549 183.94 187.18C183.606 192.811 186.585 221.315 190.224 234.907" stroke="#A4A4A4" stroke-miterlimit="10"/>
<path d="M192.875 164.492C192.875 164.492 200.153 172.286 199.819 192.161C199.486 212.037 197.833 222.32 203.125 234.917" stroke="#A4A4A4" stroke-miterlimit="10"/>
</g>
<defs>
<clipPath id="clip0_3780_3833">
<rect width="241" height="236" fill="white"/>
</clipPath>
</defs>
</svg>
